<svg width="26" height="27" viewBox="0 0 26 27" fill="none" xmlns="http://www.w3.org/2000/svg">
<path d="M21.6342 10.5737C21.6342 10.8583 21.5338 11.1261 21.3329 11.327L12.2425 20.4174C12.0416 20.6183 11.757 20.7355 11.4724 20.7355C11.2045 20.7355 10.9199 20.6183 10.719 20.4174L4.65876 14.3571C4.45787 14.1562 4.35742 13.8884 4.35742 13.6038C4.35742 13.3192 4.45787 13.0346 4.65876 12.8337L6.1822 11.327C6.38309 11.1261 6.65095 11.0089 6.93555 11.0089C7.22015 11.0089 7.488 11.1261 7.6889 11.327L11.4724 15.1105L18.3027 8.29688C18.5036 8.09598 18.7715 7.97879 19.0561 7.97879C19.3407 7.97879 19.6085 8.09598 19.8094 8.29688L21.3329 9.80357C21.5338 10.0045 21.6342 10.2891 21.6342 10.5737ZM25.853 13.2857C25.853 6.1875 20.094 0.42857 12.9958 0.42857C5.8976 0.42857 0.138672 6.1875 0.138672 13.2857C0.138672 20.3839 5.8976 26.1429 12.9958 26.1429C20.094 26.1429 25.853 20.3839 25.853 13.2857Z" fill="#8A8A8A"/>
</svg>
