<svg width="40" height="27" viewBox="0 0 40 27" fill="none" xmlns="http://www.w3.org/2000/svg">
<path d="M30.4067 12.2812L20.7973 15.3114C20.5294 15.3951 20.2616 15.4286 19.9937 15.4286C19.7259 15.4286 19.458 15.3951 19.1902 15.3114L9.58078 12.2812L9.27944 17.5714C9.14551 19.9319 14.0841 21.8571 19.9937 21.8571C25.9033 21.8571 30.8419 19.9319 30.708 17.5714L30.4067 12.2812ZM39.2794 6.85714C39.2794 6.62277 39.1288 6.42188 38.9111 6.33817L20.1611 0.445311C20.0942 0.42857 20.0439 0.42857 19.9937 0.42857C19.9435 0.42857 19.8933 0.42857 19.8263 0.445311L1.07631 6.33817C0.858677 6.42188 0.708008 6.62277 0.708008 6.85714C0.708008 7.09152 0.858677 7.29241 1.07631 7.37612L6.65109 9.11719C5.61314 10.5737 5.11091 12.683 5.01046 14.6417C4.3743 15.01 3.92229 15.6964 3.92229 16.5C3.92229 17.2533 4.30734 17.9062 4.89328 18.2913L3.92229 25.5402C3.90555 25.6908 3.95578 25.8415 4.05622 25.9587C4.15667 26.0759 4.30734 26.1429 4.45801 26.1429H7.67229C7.82296 26.1429 7.97363 26.0759 8.07408 25.9587C8.17453 25.8415 8.22475 25.6908 8.20801 25.5402L7.23703 18.2913C7.82296 17.9062 8.20801 17.2533 8.20801 16.5C8.20801 15.7132 7.78948 15.0435 7.15332 14.6752C7.28725 12.4152 7.95689 10.5737 8.91113 9.82031L19.8263 13.269C19.8933 13.2857 19.9435 13.2857 19.9937 13.2857C20.0439 13.2857 20.0942 13.2857 20.1611 13.269L38.9111 7.37612C39.1288 7.29241 39.2794 7.09152 39.2794 6.85714Z" fill="#FFBA49 "/>
</svg>
