<svg width="84" height="24" viewBox="0 0 84 24" fill="none" xmlns="http://www.w3.org/2000/svg">
<path d="M0.268036 2.69001C0.268036 2.23001 0.528036 1.85001 1.04804 1.55001C1.58804 1.23001 2.14804 1.07001 2.72804 1.07001C3.46804 1.07001 3.90804 1.33001 4.04804 1.85001L8.63804 18.11L13.198 1.85001C13.338 1.33001 13.778 1.07001 14.518 1.07001C15.078 1.07001 15.628 1.23001 16.168 1.55001C16.708 1.87001 16.978 2.25001 16.978 2.69001C16.978 2.73001 16.958 2.83001 16.918 2.99001L11.158 21.86C11.038 22.28 10.738 22.61 10.258 22.85C9.77804 23.07 9.23804 23.18 8.63804 23.18C7.25804 23.18 6.41804 22.74 6.11804 21.86L0.328036 2.99001C0.288036 2.83001 0.268036 2.73001 0.268036 2.69001ZM19.0539 21.77V2.27001C19.0539 1.87001 19.2439 1.57001 19.6239 1.37001C20.0039 1.17001 20.4639 1.07001 21.0039 1.07001C21.5439 1.07001 22.0039 1.17001 22.3839 1.37001C22.7639 1.57001 22.9539 1.87001 22.9539 2.27001V21.77C22.9539 22.15 22.7539 22.45 22.3539 22.67C21.9739 22.89 21.5239 23 21.0039 23C20.4639 23 20.0039 22.89 19.6239 22.67C19.2439 22.45 19.0539 22.15 19.0539 21.77ZM26.5539 21.8V2.27001C26.5539 1.95001 26.7139 1.67001 27.0339 1.43001C27.3539 1.19001 27.7639 1.07001 28.2639 1.07001H33.5739C35.7139 1.07001 37.4239 1.62001 38.7039 2.72001C39.9839 3.82001 40.6239 5.56001 40.6239 7.94001V16.13C40.6239 18.51 39.9839 20.25 38.7039 21.35C37.4239 22.45 35.7139 23 33.5739 23H28.2639C27.7639 23 27.3539 22.88 27.0339 22.64C26.7139 22.4 26.5539 22.12 26.5539 21.8ZM30.4539 19.58H33.5739C35.6739 19.58 36.7239 18.43 36.7239 16.13V7.94001C36.7239 5.64001 35.6739 4.49001 33.5739 4.49001H30.4539V19.58ZM43.9563 21.77V2.30001C43.9563 1.92001 44.1263 1.62001 44.4663 1.40001C44.8063 1.18001 45.2063 1.07001 45.6663 1.07001H56.3463C56.7463 1.07001 57.0463 1.24001 57.2463 1.58001C57.4663 1.92001 57.5762 2.31001 57.5762 2.75001C57.5762 3.23001 57.4663 3.64001 57.2463 3.98001C57.0263 4.32001 56.7263 4.49001 56.3463 4.49001H47.8563V10.49H52.4163C52.7963 10.49 53.0963 10.65 53.3163 10.97C53.5363 11.27 53.6463 11.63 53.6463 12.05C53.6463 12.43 53.5363 12.78 53.3163 13.1C53.1163 13.4 52.8163 13.55 52.4163 13.55H47.8563V19.58H56.3463C56.7263 19.58 57.0263 19.75 57.2463 20.09C57.4663 20.43 57.5762 20.84 57.5762 21.32C57.5762 21.76 57.4663 22.15 57.2463 22.49C57.0463 22.83 56.7463 23 56.3463 23H45.6663C45.2063 23 44.8063 22.89 44.4663 22.67C44.1263 22.45 43.9563 22.15 43.9563 21.77Z" fill="#FEFDFD"/>
<path fill-rule="evenodd" clip-rule="evenodd" d="M81.45 19.2012C83.0512 17.1954 84 14.702 84 12C84 5.37258 78.2916 0 71.25 0C64.2084 0 58.5 5.37258 58.5 12C58.5 18.6274 64.2084 24 71.25 24C75.1755 24 78.6866 22.3304 81.0254 19.7045L74.9073 19.2889L71.8922 12.6222L75.075 13.2L75.925 14.8C75.925 14.1182 75.933 14.082 75.94 14.0508C75.9453 14.027 75.9499 14.0061 75.9499 13.7067V11.9733C75.9499 11.2445 75.8457 10.5422 75.6371 9.86668C75.4286 9.17335 75.1158 8.5689 74.6987 8.05335C74.2817 7.52001 73.769 7.09335 73.1608 6.77335C72.5699 6.45335 71.8835 6.29335 71.1015 6.29335C70.2848 6.29335 69.5723 6.46224 68.9641 6.80001C68.3732 7.12001 67.8693 7.55557 67.4522 8.10668C67.0525 8.64001 66.7484 9.25335 66.5399 9.94668C66.3487 10.6222 66.2531 11.3156 66.2531 12.0267C66.2531 12.7556 66.3574 13.4667 66.5659 14.16C66.7745 14.8356 67.0786 15.44 67.4783 15.9733C67.8953 16.4889 68.408 16.9067 69.0162 17.2267C69.6244 17.5467 70.3195 17.7067 71.1015 17.7067H72.1554C72.1554 17.7067 72.7224 17.5931 72.9012 17.5932L74.1883 20.3928C74.0055 20.7992 73.8069 21.1774 73.4475 21.28C72.7003 21.4933 71.9096 21.6 71.0755 21.6C69.7026 21.6 68.4514 21.3333 67.3219 20.8C66.1923 20.2489 65.2278 19.5289 64.4285 18.64C63.6291 17.7333 63.0035 16.7022 62.5517 15.5467C62.1172 14.3911 61.9 13.2 61.9 11.9733C61.9 10.7289 62.1259 9.5289 62.5777 8.37335C63.0469 7.21779 63.6899 6.19557 64.5067 5.30668C65.3408 4.41779 66.3226 3.71557 67.4522 3.20001C68.5817 2.66668 69.8156 2.40001 71.1537 2.40001C72.5265 2.40001 73.7777 2.68446 74.9073 3.25335C76.0368 3.80446 77.0013 4.53335 77.8007 5.44001C78.6 6.34668 79.2169 7.37779 79.6514 8.53335C80.0858 9.6889 80.3031 10.8622 80.3031 12.0533C80.3031 13.2622 80.1671 14.0978 79.75 15.2L78.9 16.8L81.45 17.2267V19.2012ZM74.9073 19.2889C74.8953 19.2957 74.8835 19.3028 74.8719 19.3102L74.8685 19.3029C74.8788 19.3022 74.8906 19.2978 74.9073 19.2889Z" fill="#FF328B"/>
</svg>
