<svg width="83" height="25" viewBox="0 0 83 25" fill="none" xmlns="http://www.w3.org/2000/svg">
<path fill-rule="evenodd" clip-rule="evenodd" d="M80.1271 21.9254C80.8168 21.1056 81.4104 20.1995 81.9 19.2237V18.9917L78.8 18.4717L79.8333 16.522C80.3404 15.1789 80.5057 14.1607 80.5057 12.6876C80.5057 11.2362 80.2416 9.80646 79.7135 8.39836C79.1852 6.99025 78.4353 5.73379 77.4636 4.62896C76.4918 3.52415 75.3192 2.63596 73.9461 1.9644C72.5729 1.27118 71.0518 0.924561 69.3829 0.924561C67.7562 0.924561 66.2562 1.24951 64.8831 1.8994C63.5098 2.52764 62.3163 3.38333 61.3023 4.46649C60.3093 5.54965 59.5276 6.79528 58.9572 8.20339C58.408 9.61149 58.1333 11.0738 58.1333 12.5901C58.1333 14.0849 58.3974 15.5363 58.9256 16.9445C59.4748 18.3525 60.2354 19.609 61.2072 20.7139C62.1789 21.797 63.3514 22.6744 64.7247 23.3459C66.0978 23.9958 67.6188 24.3208 69.2879 24.3208C70.3019 24.3208 71.2631 24.1908 72.1715 23.9308C72.6084 23.8058 72.8498 23.345 73.072 22.8497L71.5073 19.4383C71.29 19.4382 70.6007 19.5766 70.6007 19.5766H69.3195C68.3688 19.5766 67.5238 19.3816 66.7844 18.9917C66.045 18.6017 65.4217 18.0926 64.9148 17.4643C64.4289 16.8145 64.0592 16.078 63.8056 15.2547C63.5521 14.4099 63.4253 13.5434 63.4253 12.6552C63.4253 11.7887 63.5416 10.9437 63.774 10.1206C64.0275 9.27572 64.3972 8.52833 64.8831 7.87844C65.3901 7.20689 66.0027 6.67613 66.7211 6.2862C67.4604 5.87461 68.3266 5.6688 69.3195 5.6688C70.2701 5.6688 71.1046 5.86377 71.8229 6.25371C72.5623 6.64365 73.1856 7.16355 73.6925 7.81346C74.1996 8.44168 74.5799 9.17824 74.8333 10.0231C75.0869 10.8463 75.2136 11.702 75.2136 12.5901V14.7024C75.2136 15.0672 75.208 15.0927 75.2016 15.1217C75.1931 15.1597 75.1833 15.2038 75.1833 16.0346L74.15 14.0849L70.2807 13.3808L73.9461 21.5046C73.9258 21.5154 73.9115 21.5208 73.899 21.5216L73.9031 21.5305C73.9172 21.5215 73.9315 21.5129 73.9461 21.5046L80.1271 21.9254Z" fill="#FF328B"/>
<path d="M0.268036 2.69001C0.268036 2.23001 0.528036 1.85001 1.04804 1.55001C1.58804 1.23001 2.14803 1.07001 2.72803 1.07001C3.46803 1.07001 3.90803 1.33001 4.04803 1.85001L8.63804 18.11L13.198 1.85001C13.338 1.33001 13.778 1.07001 14.518 1.07001C15.078 1.07001 15.628 1.23001 16.168 1.55001C16.708 1.87001 16.978 2.25001 16.978 2.69001C16.978 2.73001 16.958 2.83001 16.918 2.99001L11.158 21.86C11.038 22.28 10.738 22.61 10.258 22.85C9.77804 23.07 9.23804 23.18 8.63804 23.18C7.25804 23.18 6.41804 22.74 6.11804 21.86L0.328035 2.99001C0.288035 2.83001 0.268036 2.73001 0.268036 2.69001Z" fill="#FEFDFD"/>
<path d="M19.0539 21.77V2.27001C19.0539 1.87001 19.2439 1.57001 19.6239 1.37001C20.0039 1.17001 20.4639 1.07001 21.0039 1.07001C21.5439 1.07001 22.0039 1.17001 22.3839 1.37001C22.7639 1.57001 22.9539 1.87001 22.9539 2.27001V21.77C22.9539 22.15 22.7539 22.45 22.3539 22.67C21.9739 22.89 21.5239 23 21.0039 23C20.4639 23 20.0039 22.89 19.6239 22.67C19.2439 22.45 19.0539 22.15 19.0539 21.77Z" fill="#FEFDFD"/>
<path d="M26.5539 21.8V2.27001C26.5539 1.95001 26.7139 1.67001 27.0339 1.43001C27.3539 1.19001 27.7639 1.07001 28.2639 1.07001H33.5739C35.7139 1.07001 37.4239 1.62001 38.7039 2.72001C39.9839 3.82001 40.6239 5.56001 40.6239 7.94001V16.13C40.6239 18.51 39.9839 20.25 38.7039 21.35C37.4239 22.45 35.7139 23 33.5739 23H28.2639C27.7639 23 27.3539 22.88 27.0339 22.64C26.7139 22.4 26.5539 22.12 26.5539 21.8ZM30.4539 19.58H33.5739C35.6739 19.58 36.7239 18.43 36.7239 16.13V7.94001C36.7239 5.64001 35.6739 4.49001 33.5739 4.49001H30.4539V19.58Z" fill="#FEFDFD"/>
<path d="M43.9562 21.77V2.30001C43.9562 1.92001 44.1262 1.62001 44.4662 1.40001C44.8062 1.18001 45.2062 1.07001 45.6662 1.07001H56.3462C56.7462 1.07001 57.0462 1.24001 57.2462 1.58001C57.4662 1.92001 57.5762 2.31001 57.5762 2.75001C57.5762 3.23001 57.4662 3.64001 57.2462 3.98001C57.0262 4.32001 56.7262 4.49001 56.3462 4.49001H47.8562V10.49H52.4162C52.7962 10.49 53.0962 10.65 53.3162 10.97C53.5362 11.27 53.6462 11.63 53.6462 12.05C53.6462 12.43 53.5362 12.78 53.3162 13.1C53.1162 13.4 52.8162 13.55 52.4162 13.55H47.8562V19.58H56.3462C56.7262 19.58 57.0262 19.75 57.2462 20.09C57.4662 20.43 57.5762 20.84 57.5762 21.32C57.5762 21.76 57.4662 22.15 57.2462 22.49C57.0462 22.83 56.7462 23 56.3462 23H45.6662C45.2062 23 44.8062 22.89 44.4662 22.67C44.1262 22.45 43.9562 22.15 43.9562 21.77Z" fill="#FEFDFD"/>
</svg>
