<svg width="26" height="27" viewBox="0 0 26 27" fill="none" xmlns="http://www.w3.org/2000/svg">
<path d="M0.609375 7.76562L12.4414 13.1484C12.8138 13.3177 13.1862 13.3177 13.5586 13.1484L25.3906 7.76562C25.7969 7.5625 26 7.22396 26 6.75C26 6.27604 25.7969 5.9375 25.3906 5.73438L13.5586 0.351562C13.1862 0.182292 12.8138 0.182292 12.4414 0.351562L0.609375 5.73438C0.203125 5.9375 0 6.27604 0 6.75C0 7.22396 0.203125 7.5625 0.609375 7.76562ZM25.3906 12.2344L22.4453 10.9141L14.2188 14.6211C13.8125 14.7904 13.4062 14.875 13 14.875C12.5938 14.875 12.1875 14.7904 11.7812 14.6211L3.60547 10.9141L0.609375 12.2344C0.203125 12.4375 0 12.793 0 13.3008C0 13.7747 0.203125 14.0964 0.609375 14.2656L12.4414 19.6484C12.8138 19.8177 13.1862 19.8177 13.5586 19.6484L25.3906 14.2656C25.7969 14.0964 26 13.7747 26 13.3008C26 12.793 25.7969 12.4375 25.3906 12.2344ZM25.3906 18.7344L22.4453 17.4141L14.2188 21.1211C13.8125 21.2904 13.4062 21.375 13 21.375C12.5938 21.375 12.1875 21.2904 11.7812 21.1211L3.55469 17.4141L0.609375 18.7344C0.203125 18.9375 0 19.276 0 19.75C0 20.224 0.203125 20.5625 0.609375 20.7656L12.4414 26.1484C12.8138 26.3177 13.1862 26.3177 13.5586 26.1484L25.3906 20.7656C25.7969 20.5625 26 20.224 26 19.75C26 19.276 25.7969 18.9375 25.3906 18.7344Z" fill="#8A8A8A"/>
</svg>
