<svg width="26" height="25" viewBox="0 0 26 25" fill="none" xmlns="http://www.w3.org/2000/svg">
<path fill-rule="evenodd" clip-rule="evenodd" d="M22.6271 21.9254C23.3168 21.1056 23.9104 20.1995 24.4 19.2237V18.9917L21.3 18.4717L22.3333 16.522C22.8404 15.1789 23.0057 14.1607 23.0057 12.6876C23.0057 11.2362 22.7416 9.80646 22.2135 8.39836C21.6852 6.99025 20.9353 5.73379 19.9636 4.62896C18.9918 3.52415 17.8192 2.63596 16.4461 1.9644C15.0729 1.27118 13.5518 0.924561 11.8829 0.924561C10.2562 0.924561 8.75618 1.24951 7.38307 1.8994C6.00983 2.52764 4.81626 3.38333 3.80226 4.46649C2.80928 5.54965 2.0276 6.79528 1.4572 8.20339C0.907955 9.61149 0.633331 11.0738 0.633331 12.5901C0.633331 14.0849 0.897377 15.5363 1.42559 16.9445C1.97484 18.3525 2.73537 19.609 3.70719 20.7139C4.67889 21.797 5.85142 22.6744 7.22466 23.3459C8.59778 23.9958 10.1188 24.3208 11.7879 24.3208C12.8019 24.3208 13.7631 24.1908 14.6715 23.9308C15.1084 23.8058 15.3498 23.345 15.572 22.8497L14.0073 19.4383C13.79 19.4382 13.1007 19.5766 13.1007 19.5766H11.8195C10.8688 19.5766 10.0238 19.3816 9.28439 18.9917C8.54501 18.6017 7.92174 18.0926 7.41479 17.4643C6.92888 16.8145 6.5592 16.078 6.3056 15.2547C6.05213 14.4099 5.92533 13.5434 5.92533 12.6552C5.92533 11.7887 6.04156 10.9437 6.27399 10.1206C6.52746 9.27572 6.89716 8.52833 7.38307 7.87844C7.89013 7.20689 8.50271 6.67613 9.22106 6.2862C9.96044 5.87461 10.8266 5.6688 11.8195 5.6688C12.7701 5.6688 13.6046 5.86377 14.3229 6.25371C15.0623 6.64365 15.6856 7.16355 16.1925 7.81346C16.6996 8.44168 17.0799 9.17824 17.3333 10.0231C17.5869 10.8463 17.7136 11.702 17.7136 12.5901V14.7024C17.7136 15.0672 17.708 15.0927 17.7016 15.1217C17.6931 15.1597 17.6833 15.2038 17.6833 16.0346L16.65 14.0849L12.7807 13.3808L16.4461 21.5046C16.4258 21.5154 16.4115 21.5208 16.399 21.5216L16.4031 21.5305C16.4172 21.5215 16.4315 21.5129 16.4461 21.5046L22.6271 21.9254Z" fill="#8A8A8A"/>
</svg>
