<svg width="28" height="27" viewBox="0 0 28 27" fill="none" xmlns="http://www.w3.org/2000/svg">
<path fill-rule="evenodd" clip-rule="evenodd" d="M24.7999 21.6014C26.4953 19.3449 27.5 16.5398 27.5 13.5C27.5 6.04416 21.4558 0 14 0C6.54416 0 0.5 6.04416 0.5 13.5C0.5 20.9558 6.54416 27 14 27C18.4136 27 22.3325 24.882 24.7958 21.6069L17.8723 21.1191L14.6799 13.7976L18.0499 14.4322L18.9499 16.1893C18.9499 15.4406 18.9584 15.4008 18.9658 15.3665C18.9714 15.3404 18.9763 15.3174 18.9763 14.9886V13.085C18.9763 12.2845 18.8659 11.5134 18.6451 10.7714C18.4243 10.01 18.0931 9.34621 17.6515 8.78002C17.2099 8.1943 16.6671 7.72573 16.0231 7.3743C15.3975 7.02287 14.6707 6.84716 13.8427 6.84716C12.9779 6.84716 12.2235 7.03263 11.5795 7.40358C10.9539 7.75501 10.4203 8.23335 9.97871 8.83858C9.55551 9.4243 9.23351 10.0979 9.01271 10.8593C8.81031 11.6012 8.70911 12.3626 8.70911 13.1436C8.70911 13.9441 8.81951 14.725 9.04031 15.4865C9.26111 16.2284 9.58311 16.8922 10.0063 17.4779C10.4479 18.0441 10.9907 18.5029 11.6347 18.8543C12.2787 19.2057 13.0147 19.3815 13.8427 19.3815H14.9586C14.9586 19.3815 15.559 19.2567 15.7482 19.2568L17.1111 22.3314C16.9176 22.7777 16.7073 23.1931 16.3267 23.3057C15.5355 23.54 14.6983 23.6572 13.8151 23.6572C12.3615 23.6572 11.0367 23.3643 9.84071 22.7786C8.64471 22.1734 7.62351 21.3827 6.77711 20.4065C5.93071 19.4107 5.26831 18.2784 4.78991 17.0093C4.32991 15.7403 4.09991 14.4322 4.09991 13.085C4.09991 11.7184 4.33911 10.4005 4.81751 9.13144C5.31431 7.86239 5.99511 6.73977 6.85991 5.76358C7.74311 4.78739 8.78271 4.0162 9.97871 3.45001C11.1747 2.86429 12.4811 2.57143 13.8979 2.57143C15.3515 2.57143 16.6763 2.88382 17.8723 3.50858C19.0683 4.11382 20.0895 4.9143 20.9359 5.91001C21.7823 6.90573 22.4355 8.03811 22.8955 9.30716C23.3555 10.5762 23.5855 11.8648 23.5855 13.1729C23.5855 14.5005 23.4415 15.4181 22.9999 16.6286L22.0999 18.3857L24.7999 18.8543V21.6014ZM17.8723 21.1191C17.8596 21.1265 17.8472 21.1343 17.8349 21.1425L17.8313 21.1344C17.8422 21.1336 17.8547 21.1288 17.8723 21.1191Z" fill="#FF328B"/>
</svg>
